<svg xmlns="http://www.w3.org/2000/svg" viewBox="0 0 64 64" width="64" height="64" role="img" aria-label="Inkstone — 砚">
  <title>Inkstone — 砚</title>
  <!-- 朱砂红印章底 -->
  <rect width="64" height="64" rx="8.96" ry="8.96" fill="#b91c1c"/>
  <!-- 砚 · 魏碑 Bold (glyph path baked in, no font dependency) -->
  <g transform="translate(7.274 49.782) scale(0.04913 -0.04913)">
    <path d="M524 639C499 614 488 512 493 331C493 302 485 284 470 279C452 273 443 280 444 301C444 320 444 352 444 396C450 535 454 627 458 671C456 685 458 692 466 695C485 700 508 706 531 713C555 719 586 726 627 733C666 741 708 738 751 726C772 716 773 702 756 686C740 660 733 611 735 539C735 467 734 388 734 304C732 275 728 263 718 266C706 269 690 275 669 286C646 297 634 306 634 312C632 317 636 323 647 331C654 347 660 386 662 450C664 513 665 565 665 608C665 651 660 676 650 684C643 692 621 692 587 683C552 673 530 658 524 639ZM826 -12C762 -15 714 -14 681 -8C665 -6 653 -5 646 -5C636 -5 616 21 589 77C577 103 575 138 584 183C592 228 594 257 592 271C590 285 603 289 631 284C656 278 663 268 650 252C637 224 629 193 628 160C626 127 630 104 640 94C661 72 702 62 763 62C821 62 862 72 886 94C901 126 897 204 874 328C870 349 874 352 886 336C933 230 963 140 978 66C983 29 986 9 985 5C983 1 976 -1 963 -3C936 -7 890 -10 826 -12ZM525 312C545 380 553 470 549 583C543 606 547 616 562 613C575 609 589 606 604 605C617 604 618 591 606 569C601 552 597 499 596 412C594 324 576 261 545 222C512 183 495 155 495 142C503 126 497 110 480 95C460 79 434 61 401 41C368 21 334 10 301 8C279 4 274 7 285 18C324 55 372 97 431 146C472 187 504 241 525 312ZM139 608C146 605 222 617 365 645C406 656 427 657 427 648C427 639 427 626 428 610C428 594 418 583 398 578C383 572 366 565 349 560C323 538 299 512 275 481C260 460 241 434 220 404C224 405 230 407 236 409C281 425 318 430 348 425C410 403 435 387 423 376C407 365 393 338 380 293C366 248 360 217 362 199C362 189 356 185 347 186C292 189 250 185 223 172C215 169 211 171 211 177C209 183 204 191 195 203C172 241 158 279 154 316C129 287 107 267 90 256C33 240 12 239 25 255C37 269 62 292 97 327C157 403 193 455 205 484C209 499 213 514 217 529C195 522 183 516 178 509C168 497 157 511 144 552C128 593 127 611 139 608ZM291 251C326 295 328 333 297 365C291 370 280 369 265 362C247 355 237 350 235 344C212 308 211 274 233 244C235 242 244 242 260 244C273 246 284 248 291 251Z" fill="#faf8f3"/>
  </g>
</svg>
